<?xml version="1.0" encoding="UTF-8" standalone="no"?>
<!DOCTYPE svg PUBLIC "-//W3C//DTD SVG 1.1//EN"
 "http://www.w3.org/Graphics/SVG/1.1/DTD/svg11.dtd">
<!-- Generated by graphviz version 2.38.0 (20140413.2041)
 -->
<!-- Title: %3 Pages: 1 -->
<svg width="161pt" height="332pt"
 viewBox="0.00 0.00 161.00 332.00" xmlns="http://www.w3.org/2000/svg" xmlns:xlink="http://www.w3.org/1999/xlink">
<g id="graph0" class="graph" transform="scale(1 1) rotate(0) translate(4 328)">
<title>%3</title>
<polygon fill="white" stroke="none" points="-4,4 -4,-328 157,-328 157,4 -4,4"/>
<!-- 1 -->
<g id="node1" class="node"><title>1</title>
<ellipse fill="indigo" stroke="indigo" cx="126" cy="-162" rx="27" ry="18"/>
<text text-anchor="middle" x="126" y="-158.3" font-family="Times,serif" font-size="14.00">1</text>
</g>
<!-- 5 -->
<g id="node5" class="node"><title>5</title>
<ellipse fill="cyan" stroke="cyan" cx="71" cy="-90" rx="27" ry="18"/>
<text text-anchor="middle" x="71" y="-86.3" font-family="Times,serif" font-size="14.00">5</text>
</g>
<!-- 1&#45;&#45;5 -->
<g id="edge1" class="edge"><title>1&#45;&#45;5</title>
<path fill="none" stroke="black" d="M114.066,-145.811C104.84,-134.07 92.1304,-117.893 82.9109,-106.159"/>
</g>
<!-- 6 -->
<g id="node6" class="node"><title>6</title>
<ellipse fill="darkred" stroke="darkred" cx="98" cy="-18" rx="27" ry="18"/>
<text text-anchor="middle" x="98" y="-14.3" font-family="Times,serif" font-size="14.00">6</text>
</g>
<!-- 1&#45;&#45;6 -->
<g id="edge2" class="edge"><title>1&#45;&#45;6</title>
<path fill="none" stroke="black" d="M122.623,-143.871C117.241,-116.578 106.779,-63.5205 101.389,-36.1893"/>
</g>
<!-- 2 -->
<g id="node2" class="node"><title>2</title>
<ellipse fill="indigo" stroke="indigo" cx="54" cy="-306" rx="27" ry="18"/>
<text text-anchor="middle" x="54" y="-302.3" font-family="Times,serif" font-size="14.00">2</text>
</g>
<!-- 3 -->
<g id="node3" class="node"><title>3</title>
<ellipse fill="cyan" stroke="cyan" cx="27" cy="-234" rx="27" ry="18"/>
<text text-anchor="middle" x="27" y="-230.3" font-family="Times,serif" font-size="14.00">3</text>
</g>
<!-- 2&#45;&#45;3 -->
<g id="edge3" class="edge"><title>2&#45;&#45;3</title>
<path fill="none" stroke="black" d="M47.6014,-288.411C43.3597,-277.414 37.8106,-263.027 33.5403,-251.956"/>
</g>
<!-- 4 -->
<g id="node4" class="node"><title>4</title>
<ellipse fill="darkred" stroke="darkred" cx="54" cy="-162" rx="27" ry="18"/>
<text text-anchor="middle" x="54" y="-158.3" font-family="Times,serif" font-size="14.00">4</text>
</g>
<!-- 2&#45;&#45;4 -->
<g id="edge4" class="edge"><title>2&#45;&#45;4</title>
<path fill="none" stroke="black" d="M57.6538,-287.908C59.6758,-277.569 61.9808,-264.09 63,-252 64.3441,-236.057 64.3441,-231.943 63,-216 61.9808,-203.91 59.6758,-190.431 57.6538,-180.092"/>
</g>
<!-- 3&#45;&#45;4 -->
<g id="edge5" class="edge"><title>3&#45;&#45;4</title>
<path fill="none" stroke="black" d="M33.3986,-216.411C37.6403,-205.414 43.1894,-191.027 47.4597,-179.956"/>
</g>
<!-- 4&#45;&#45;5 -->
<g id="edge6" class="edge"><title>4&#45;&#45;5</title>
<path fill="none" stroke="black" d="M58.1152,-144.055C60.7487,-133.211 64.1556,-119.183 66.8046,-108.275"/>
</g>
<!-- 5&#45;&#45;6 -->
<g id="edge7" class="edge"><title>5&#45;&#45;6</title>
<path fill="none" stroke="black" d="M77.3986,-72.411C81.6403,-61.4141 87.1894,-47.0274 91.4597,-35.9562"/>
</g>
</g>
</svg>
